<svg width="68" height="26" viewBox="0 0 68 26" fill="none" xmlns="http://www.w3.org/2000/svg">
<path d="M15.9811 0C13.3518 0 10.8303 1.04446 8.97115 2.90363L2.90363 8.97115C1.04446 10.8303 0 13.3518 0 15.9811C0 21.4563 4.43848 25.8947 9.91363 25.8947C12.5429 25.8947 15.0644 24.8502 16.9236 22.9911L21.1205 18.7941C21.1206 18.7942 21.1205 18.7941 21.1205 18.7941L33.349 6.5657C34.2369 5.67778 35.4412 5.17895 36.6969 5.17895C38.7992 5.17895 40.5815 6.54913 41.1995 8.4452L45.0587 4.58592C43.2982 1.82846 40.2111 0 36.6969 0C34.0676 0 31.5461 1.04446 29.6869 2.90363L13.2616 19.329C12.3736 20.217 11.1693 20.7158 9.91363 20.7158C7.29872 20.7158 5.17895 18.596 5.17895 15.9811C5.17895 14.7254 5.67777 13.5211 6.5657 12.6332L12.6332 6.5657C13.5211 5.67778 14.7254 5.17895 15.9811 5.17895C18.0835 5.17895 19.8658 6.54919 20.4837 8.44532L24.343 4.58602C22.5825 1.82851 19.4954 0 15.9811 0Z" fill="url(#paint0_linear_309_451)"/>
<path d="M33.9775 19.329C33.0895 20.217 31.8853 20.7158 30.6295 20.7158C28.5275 20.7158 26.7453 19.346 26.1272 17.4502L22.2681 21.3094C24.0287 24.0665 27.1156 25.8947 30.6295 25.8947C33.2588 25.8947 35.7804 24.8502 37.6395 22.9911L54.0649 6.5657C54.9528 5.67778 56.1571 5.17895 57.4128 5.17895C60.0278 5.17895 62.1475 7.29873 62.1475 9.91363C62.1475 11.1694 61.6487 12.3736 60.7608 13.2616L54.6933 19.329C53.8053 20.217 52.6011 20.7158 51.3453 20.7158C49.2431 20.7158 47.4609 19.3457 46.8428 17.4498L42.9837 21.309C44.7443 24.0664 47.8312 25.8947 51.3453 25.8947C53.9746 25.8947 56.4961 24.8502 58.3553 22.9911L64.4228 16.9236C66.2819 15.0644 67.3264 12.5429 67.3264 9.91363C67.3264 4.43848 62.888 3.8147e-06 57.4128 3.8147e-06C54.7836 3.8147e-06 52.262 1.04447 50.4029 2.90363L33.9775 19.329Z" fill="url(#paint1_linear_309_451)"/>
<defs>
<linearGradient id="paint0_linear_309_451" x1="45.6534" y1="12.7748" x2="-0.0350258" y2="13.0215" gradientUnits="userSpaceOnUse">
<stop stop-color="#D4FE1A"/>
<stop offset="1" stop-color="#39EEBE"/>
</linearGradient>
<linearGradient id="paint1_linear_309_451" x1="67.9211" y1="12.7748" x2="22.233" y2="13.0215" gradientUnits="userSpaceOnUse">
<stop stop-color="#D4FE1A"/>
<stop offset="1" stop-color="#39EEBE"/>
</linearGradient>
</defs>
</svg>
